<svg xmlns="http://www.w3.org/2000/svg" width="875.955" height="237.145" viewBox="0 0 875.955 237.145">
  <g id="logo" transform="translate(132.265 -276.695)">
    <path id="Path_2" data-name="Path 2" d="M152.93,501.1c-60.78,1.42-110.5-50.44-112.31-108.05-2.04-65.2,50.72-114.11,109.18-116.28,64.47-2.38,113.39,52,115.27,107.83C267.29,450.46,213.39,502.65,152.93,501.1ZM111.91,390.8a76.172,76.172,0,0,0,1.23,8.44c5.97,25.22,33.1,41.18,58.57,27.85,16.68-8.74,24.8-27.65,21.03-47.51a40.817,40.817,0,0,0-48.79-32.26C125.43,351.45,111.81,369.23,111.91,390.8Z" fill="#857874"/>
    <path id="Path_3" data-name="Path 3" d="M24.89,495.63H-44.84v-3.78q0-65.115-.04-130.23a38.484,38.484,0,0,0-1.01-8.89c-1.09-4.57-3.74-6.45-8.14-6.4-4.12.04-6.6,2-7.61,6.63a42.965,42.965,0,0,0-.9,8.91q-.075,64.965-.04,129.93v3.76H-132.2v-3.3c0-45.71-.19-91.42.08-137.13.13-21.68,6.88-41.07,22.71-56.58,12.53-12.29,27.83-18.82,45.1-20.8,13.39-1.54,26.74-1.21,39.77,2.67,24.9,7.41,39.35,24.66,45.85,49.27a118.384,118.384,0,0,1,3.56,30.26q.1,66.315.03,132.63C24.89,493.55,24.89,494.52,24.89,495.63Z" fill="#857874"/>
    <path id="Path_4" data-name="Path 4" d="M656.26,491.29H595.25v-3.28c0-44.11-.16-88.22.07-132.33.11-20.39,6.13-38.78,20.94-53.53,12.42-12.37,27.66-18.58,44.91-20.28,13.35-1.32,26.56-.67,39.33,3.74,20.88,7.21,33.15,22.37,39.17,43.18a112.54,112.54,0,0,1,3.95,31.11c.12,43.01.05,86.02.05,129.03v2.26H682.59v-3.36q0-63.465-.05-126.93a40.73,40.73,0,0,0-1.22-9.77c-1.52-6.01-5.92-9.12-12.1-9.12-6.12.01-10.18,2.93-11.71,9.08a43.976,43.976,0,0,0-1.19,10.36q-.12,63.165-.05,126.33C656.26,488.87,656.26,489.95,656.26,491.29Z" fill="#31849b"/>
    <path id="Path_5" data-name="Path 5" d="M251.6,281.86h3.63c24.58,0,49.17.05,73.75-.07,2.55-.01,3.4.89,4.05,3.14,4.57,15.92,9.25,31.81,13.91,47.71.17.57.43,1.1.84,2.16,3.18-9.78,6.22-19.1,9.25-28.42,2.43-7.5,4.8-15.02,7.34-22.48a3.331,3.331,0,0,1,2.32-1.95q37.32-.135,74.65-.05a7.825,7.825,0,0,1,1.3.33q-47.715,115.83-95.35,231.45c-.25.05-.51.1-.76.16C314.96,436.71,283.4,359.59,251.6,281.86Z" fill="#857874"/>
    <path id="Path_6" data-name="Path 6" d="M564.45,286.13v58.82H561.1c-12.29.02-24.58-.02-36.87.12a26.993,26.993,0,0,0-7.35,1.17c-4.93,1.48-7.09,4.81-6.86,9.91.23,4.99,2.52,7.93,7.68,8.85a71.477,71.477,0,0,0,11.61.91c9.29.12,18.59.04,27.88.04h3.41v45.61h-3.12q-19.035.03-38.07.08a41.479,41.479,0,0,0-4.16.38c-8.01.87-10.55,6.41-8.42,14.79a5.762,5.762,0,0,0,5.05,4.54,128.527,128.527,0,0,0,13.98,1.16c11.69.16,23.38.05,35.07.05h3.46v58.69c-1.01.04-1.98.12-2.95.12-16.19.01-32.38.15-48.57-.04-11.14-.13-22.07-1.86-32.39-6.33-18.86-8.17-29.27-22.83-32.26-42.91a108.812,108.812,0,0,1-1.03-15.53q-.15-40.215-.01-80.42c.04-10.59,1.89-20.89,6.86-30.4,8.24-15.76,21.68-24.46,38.73-27.77a106.751,106.751,0,0,1,18.73-1.77c16.48-.24,32.98-.08,49.46-.08C562.06,286.13,563.14,286.13,564.45,286.13Z" fill="#31849b"/>
  </g>
</svg>
