<svg width="454" height="517" viewBox="0 0 454 517" fill="none" xmlns="http://www.w3.org/2000/svg">
<mask id="mask0_90_51" style="mask-type:luminance" maskUnits="userSpaceOnUse" x="192" y="0" width="70" height="429">
<path d="M192.342 0H261.214V428.239H192.342V0Z" fill="white"/>
</mask>
<g mask="url(#mask0_90_51)">
<path d="M192.77 376.976L253.475 434.135L255.009 434.135L260.576 6.82422L192.77 61.7283V376.976Z" fill="black"/>
</g>
<path d="M348.976 131.288L282.15 79.0383V400.048L304.547 377.629V222.561L348.976 204.048V131.288Z" fill="black"/>
<path d="M385.037 208.019L321.708 235.562V361.359L385.037 297.814V208.019Z" fill="black"/>
<path d="M104.06 131.288L170.886 79.0383V400.048L148.489 377.629V222.561L104.06 204.048V131.288Z" fill="black"/>
<path d="M68 208.019L131.329 235.562V361.359L68 297.814V208.019Z" fill="black"/>
<path d="M1.50025 448.58L1.38485 445.541C1.84647 445.515 2.32091 445.503 2.80817 445.503C4.09044 445.503 5.43682 445.541 6.84732 445.618C10.2325 445.798 12.22 445.887 12.8099 445.887C14.8615 445.887 16.8618 445.849 18.8109 445.772C20.7856 445.669 22.5295 445.605 24.0425 445.58C25.5813 445.554 26.6199 445.528 27.1585 445.503L27.12 445.964L27.1969 448.234V448.542C25.7608 448.747 24.2734 448.849 22.7346 448.849C21.2985 448.849 20.3496 449.131 19.888 449.696C19.5802 450.055 19.4264 451.581 19.4264 454.273C19.4264 455.094 19.4392 455.761 19.4648 456.274L19.5033 457.659L19.4264 461.275L19.6572 464.352L19.5033 471.007L20.0034 480.662C20.1316 483.458 20.7471 485.779 21.8499 487.625C22.6705 488.984 23.8246 490.049 25.312 490.818C27.4662 491.895 29.5819 492.434 31.6592 492.434C34.1212 492.434 36.4164 492.113 38.545 491.472C39.8016 491.113 40.9813 490.536 42.0841 489.741C43.2125 488.92 43.9946 488.177 44.4306 487.51C45.3539 486.099 45.995 484.779 46.354 483.548C46.8413 481.855 47.0849 479.226 47.0849 475.662C47.0849 469.455 46.7515 462.467 46.0847 454.697L45.9309 452.658C45.8539 451.145 45.5718 450.132 45.0846 449.619C44.2639 448.824 43.3407 448.426 42.3149 448.426L38.6989 448.503L38.1988 448.388L38.2757 445.464H41.3147L48.6621 445.772C51.1241 445.772 53.4706 445.657 55.7018 445.426L56.3557 445.503C56.5096 446.349 56.5865 446.939 56.5865 447.272C56.5865 447.554 56.5352 447.901 56.4327 448.311C55.4838 448.593 54.4836 448.76 53.4321 448.811C51.7139 449.042 50.765 449.234 50.5855 449.388C50.2265 449.696 50.047 450.17 50.047 450.811C50.047 451.273 50.0854 451.94 50.1624 452.812C50.2393 453.453 50.2778 454.568 50.2778 456.158C50.2778 457.056 50.2778 457.761 50.2778 458.274C50.3034 458.787 50.3291 459.313 50.3547 459.851C50.4316 461.698 50.4958 463.57 50.547 465.468L50.9317 473.277C50.9317 478.508 50.7522 482.009 50.3932 483.778C50.0341 485.548 49.5469 486.946 48.9314 487.971C47.9825 489.51 46.6361 490.933 44.8922 492.241C43.1484 493.524 40.9685 494.549 38.3527 495.319C35.7368 496.063 32.685 496.434 29.1973 496.434C25.2222 496.434 21.8114 495.909 18.9648 494.857C16.1181 493.78 13.9639 492.382 12.5021 490.664C11.066 488.92 10.0786 486.663 9.54008 483.894C9.1554 481.996 8.96306 479.278 8.96306 475.739L9.00153 457.389C9.00153 453.055 8.79637 450.606 8.38604 450.042C7.82184 449.247 6.06513 448.798 3.11591 448.696C2.47478 448.696 1.93623 448.657 1.50025 448.58ZM63.1646 492.78C63.8314 492.421 64.8187 492.164 66.1266 492.011C67.4345 491.831 68.6142 491.549 69.6657 491.164C69.7939 490.651 69.8708 490.279 69.8965 490.049C69.9478 489.69 69.9734 488.459 69.9734 486.356L69.935 477.777L70.0888 473.161L70.0119 469.584L70.0888 467.506C70.1658 464.711 70.2042 462.095 70.2042 459.659C70.2042 454.325 70.1401 450.914 70.0119 449.426L67.7423 448.965C65.665 448.837 64.2801 448.708 63.5877 448.58L63.5108 446.272L63.6647 445.849C64.9469 445.644 66.1266 445.541 67.2037 445.541C67.7936 445.541 68.9861 445.528 70.7813 445.503C72.6277 445.657 73.6279 445.733 73.7818 445.733L75.8206 445.618L80.6291 445.387C83.6296 445.08 86.7968 444.926 90.1307 444.926C95.388 444.926 99.5682 446.272 102.671 448.965C105.774 451.632 107.326 454.697 107.326 458.159C107.326 460.749 106.48 463.108 104.787 465.237C103.12 467.34 100.543 468.93 97.0549 470.007C97.3627 470.545 97.773 471.174 98.2859 471.892C99.363 473.43 100.235 474.738 100.902 475.816L107.057 485.779C108.595 488.42 109.596 489.972 110.057 490.433C110.544 490.869 111.532 491.357 113.019 491.895C114.173 492.331 115.058 492.767 115.673 493.203C115.827 493.639 115.904 494.024 115.904 494.357C115.904 494.588 115.891 494.883 115.866 495.242H114.827L114.058 495.28L112.057 495.011H110.48C109.66 494.883 108.647 494.819 107.441 494.819L103.595 494.78C103.312 494.78 102.415 494.87 100.902 495.05C100.209 495.126 99.6579 495.191 99.2476 495.242L97.9397 492.703C96.8626 490.78 96.1061 489.343 95.6701 488.395C94.5417 485.907 92.6055 481.945 89.8614 476.508C88.5791 473.995 87.6816 472.571 87.1686 472.238C86.3993 471.699 85.0785 471.43 83.2064 471.43C82.6935 471.43 81.8216 471.456 80.5906 471.507C80.5137 472.251 80.4752 473.136 80.4752 474.161L80.6291 482.701L80.4367 489.933C81.1548 490.369 82.0909 490.703 83.2449 490.933C85.2452 491.344 86.9635 491.831 88.3996 492.395C88.3996 493.652 88.3483 494.601 88.2458 495.242C87.7585 495.216 87.4507 495.203 87.3225 495.203L85.7453 495.28C80.2316 494.793 76.9618 494.549 75.936 494.549C75.2692 494.549 74.7948 494.562 74.5127 494.588L69.2041 494.934C67.5884 495.114 66.1138 495.203 64.7802 495.203H63.1261C63.0748 494.562 63.0492 494.152 63.0492 493.972C63.0492 493.69 63.0876 493.293 63.1646 492.78ZM80.4752 467.891C81.7062 467.942 82.6038 467.968 83.168 467.968C87.5277 467.968 90.618 467.186 92.4388 465.621C94.2596 464.057 95.17 461.967 95.17 459.351C95.17 457.736 94.9392 456.222 94.4776 454.812C94.0416 453.376 93.4902 452.312 92.8235 451.619C91.8746 450.619 90.6308 449.862 89.0921 449.349C87.9637 448.965 86.1557 448.772 83.6681 448.772C82.4884 448.772 81.4754 448.837 80.6291 448.965L80.5906 449.696L80.6291 454.889L80.5521 458.043L80.5906 462.236C80.5393 463.416 80.5008 464.942 80.4752 466.814V467.891ZM117.751 495.473L117.828 492.395C118.443 492.241 119.187 492.1 120.059 491.972C121.726 491.741 123.085 491.408 124.136 490.972C124.496 490.382 124.726 489.818 124.829 489.279C125.034 487.843 125.137 485.727 125.137 482.932L125.06 466.583C125.06 464.891 124.97 460.467 124.79 453.312C124.739 451.388 124.611 450.196 124.406 449.734C124.329 449.58 124.201 449.452 124.021 449.349C123.611 449.067 122.841 448.901 121.713 448.849C121.226 448.824 119.969 448.683 117.943 448.426L117.828 445.695L126.445 445.503L139.024 445.08L140.524 445.041C140.832 445.015 141.139 445.003 141.447 445.003C141.704 445.003 142.383 445.015 143.486 445.041H145.948C147.897 445.015 150.013 445.31 152.295 445.926C153.09 446.131 154.142 446.567 155.449 447.234C156.757 447.875 157.886 448.708 158.835 449.734C159.809 450.734 160.527 451.863 160.989 453.119C161.45 454.376 161.681 455.71 161.681 457.12C161.681 458.684 161.335 460.095 160.643 461.352C159.95 462.582 158.899 463.724 157.488 464.775C156.77 465.288 155.116 466.134 152.526 467.314C156.398 468.186 159.348 469.789 161.374 472.123C163.4 474.431 164.413 477.008 164.413 479.855C164.413 481.547 164.092 483.317 163.451 485.163C162.989 486.548 162.207 487.83 161.104 489.01C159.642 490.574 158.091 491.754 156.45 492.549C154.834 493.344 152.59 493.998 149.718 494.511C148.282 494.767 146.102 494.896 143.178 494.896L136.639 494.742C133.869 494.742 130.573 494.87 126.752 495.126C125.675 495.178 122.675 495.293 117.751 495.473ZM135.677 466.275C136.703 466.429 137.908 466.506 139.293 466.506C143.14 466.506 146.05 465.801 148.025 464.39C150 462.954 150.987 460.492 150.987 457.005C150.987 454.543 150.051 452.491 148.179 450.85C146.307 449.208 143.486 448.388 139.716 448.388C138.639 448.388 137.203 448.529 135.408 448.811C135.408 449.401 135.433 450.247 135.485 451.35C135.613 453.53 135.677 456.581 135.677 460.505L135.638 463.737C135.638 464.301 135.651 465.147 135.677 466.275ZM136.139 490.78C137.805 491.472 139.357 491.818 140.793 491.818C143.717 491.818 146.102 491.382 147.948 490.51C149.795 489.613 151.141 488.369 151.987 486.779C152.834 485.189 153.257 483.201 153.257 480.816C153.257 478.354 152.795 476.38 151.872 474.892C150.59 472.841 149.038 471.469 147.217 470.776C145.396 470.058 142.665 469.699 139.024 469.699C137.408 469.699 136.292 469.814 135.677 470.045V474.777L135.638 480.47L135.754 489.318C135.779 489.728 135.908 490.215 136.139 490.78ZM166.567 495.126L166.644 492.511C167.131 492.357 167.99 492.164 169.221 491.934C171.196 491.549 172.388 491.203 172.799 490.895C173.235 490.587 173.76 489.844 174.376 488.664L182.146 468.314L191.263 444.387C192.11 444.413 192.917 444.426 193.687 444.426H195.418L195.764 445.118L202.457 460.967C203.971 464.326 205.33 467.596 206.535 470.776C207.74 473.931 208.779 476.508 209.651 478.508C210.164 479.714 210.869 481.522 211.767 483.932C212.228 485.24 212.934 486.881 213.882 488.856C214.395 489.933 214.78 490.562 215.037 490.741C215.498 491.126 216.242 491.382 217.268 491.51C218.319 491.639 219.448 491.934 220.653 492.395C220.781 493.242 220.845 493.87 220.845 494.28C220.845 494.46 220.832 494.742 220.807 495.126C218.909 495.126 216.819 495.037 214.536 494.857C212.254 494.678 210.202 494.588 208.382 494.588C206.356 494.588 204.894 494.614 203.996 494.665L197.457 495.011L195.572 495.088C195.572 494.19 195.61 493.331 195.687 492.511L199.957 491.587C201.239 491.254 201.983 490.998 202.188 490.818C202.445 490.562 202.573 490.267 202.573 489.933C202.573 489.6 202.509 489.254 202.381 488.895L200.842 485.125L197.803 477.585L183.108 477.547C182.569 478.778 181.454 481.791 179.761 486.587C179.274 487.946 179.03 488.869 179.03 489.356C179.03 490.023 179.21 490.497 179.569 490.78C180.159 491.267 181.287 491.613 182.954 491.818C183.185 491.87 184.095 492.011 185.685 492.241C185.711 493.165 185.724 493.806 185.724 494.165C185.724 494.447 185.698 494.742 185.647 495.05C184.057 495.05 180.261 494.832 174.26 494.396L172.683 494.665C170.785 494.973 168.977 495.126 167.259 495.126H166.567ZM184.647 473.507C190.648 473.584 194.187 473.623 195.264 473.623L196.226 473.584C195.456 471.302 194.456 468.648 193.225 465.621C191.994 462.57 190.994 460.249 190.225 458.659L184.647 473.507ZM219.691 448.388L219.537 445.695H222.807L223.923 445.657C225.461 445.58 226.526 445.541 227.115 445.541C227.423 445.541 228.321 445.567 229.808 445.618C230.142 445.644 230.424 445.657 230.655 445.657C230.885 445.657 231.693 445.631 233.078 445.58C234.463 445.528 235.245 445.503 235.425 445.503C235.707 445.503 236.104 445.515 236.617 445.541C240.566 449.131 243.785 452.222 246.273 454.812C248.76 457.402 257.839 466.468 273.508 482.009V481.047L273.354 476.585C273.277 473.969 273.175 471.905 273.046 470.392C272.918 468.853 272.841 467.032 272.816 464.929C272.79 462.8 272.7 460.877 272.546 459.159C272.239 455.799 272.085 453.863 272.085 453.35C272.059 451.683 271.88 450.67 271.546 450.311C271.008 449.747 269.777 449.324 267.853 449.042C266.443 448.811 265.391 448.516 264.699 448.157L264.737 445.887L265.737 445.772L273.316 445.541L281.779 445.31C282.343 445.285 282.881 445.272 283.394 445.272L283.433 447.772C282.843 448.08 282.24 448.311 281.625 448.465C279.983 448.849 279.035 449.119 278.778 449.273C277.47 450.016 276.765 450.465 276.662 450.619C276.432 450.927 276.316 451.401 276.316 452.042C276.316 452.196 276.342 452.735 276.393 453.658C276.419 454.12 276.432 455.197 276.432 456.889C276.457 460.608 276.56 463.544 276.739 465.698C276.791 466.391 276.829 467.173 276.855 468.045L277.278 481.547C277.304 482.496 277.316 483.163 277.316 483.548V488.279L277.432 490.279L277.316 492.357C277.419 493.408 277.47 494.037 277.47 494.242V496.281L273.046 496.434L268.469 491.703L259.121 482.432L252.581 475.892L247.773 470.969C244.644 467.891 241.797 465.185 239.233 462.852L232.963 457.197L233.309 471.507C233.334 472.379 233.347 473.277 233.347 474.2L233.309 476.931L233.54 481.97C233.617 484.073 233.758 486.356 233.963 488.818C234.014 489.484 234.078 489.959 234.155 490.241C234.232 490.497 234.386 490.882 234.617 491.395C235.617 491.754 237.797 492.023 241.156 492.203C241.387 492.254 241.721 492.344 242.157 492.472L242.31 495.588L240.81 495.627C239.989 495.627 237.399 495.434 233.04 495.05C228.962 495.101 226.244 495.178 224.884 495.28C223.525 495.383 222.781 495.434 222.653 495.434C222.345 495.434 221.922 495.383 221.384 495.28C221.332 494.691 221.307 494.178 221.307 493.742C221.307 493.46 221.32 492.998 221.345 492.357C222.063 492.229 222.653 492.164 223.115 492.164C223.269 492.164 223.769 492.19 224.615 492.241C226.769 492.241 228.039 492.087 228.423 491.78C228.834 491.446 229.065 490.574 229.116 489.164C229.295 485.086 229.385 482.599 229.385 481.701V479.585L229.462 467.083L229.347 459.274C229.321 456.299 229.129 454.235 228.77 453.081C228.616 452.491 228.321 451.978 227.885 451.542C226.987 450.619 225.987 449.926 224.884 449.465C224.218 449.183 222.487 448.824 219.691 448.388ZM288.049 495.396L288.126 492.626C288.69 492.498 289.626 492.305 290.934 492.049C292.242 491.793 293.55 491.498 294.858 491.164L295.589 490.703C295.845 489.677 295.973 488.625 295.973 487.548V487.317L295.819 478.431L295.858 474.7L295.704 469.199L295.781 462.659L295.319 449.773C294.935 449.414 293.691 449.055 291.588 448.696C291.075 448.593 290.331 448.388 289.357 448.08L288.434 447.849V445.156L293.511 445.349C296.589 445.657 301.115 445.81 307.091 445.81C310.091 445.81 313.22 445.733 316.477 445.58L317.208 445.541L319.093 445.58L319.862 445.541H321.478L328.363 445.31C328.671 445.31 329.069 445.285 329.556 445.233C330.069 445.182 330.543 445.144 330.979 445.118C331.133 445.887 331.236 446.657 331.287 447.426L331.864 454.658C331.864 455.427 331.787 456.017 331.633 456.428C330.71 456.556 330.03 456.62 329.594 456.62C329.082 456.62 328.671 456.505 328.363 456.274C328.21 456.12 327.915 455.543 327.479 454.543C326.402 451.952 325.478 450.427 324.709 449.965C323.965 449.478 321.862 449.234 318.4 449.234L313.092 449.388C310.835 449.414 309.052 449.542 307.745 449.773C307.462 449.824 307.052 449.952 306.514 450.157C306.18 450.747 306.014 451.504 306.014 452.427L306.129 457.005L306.014 462.236C306.014 464.903 306.103 466.545 306.283 467.16C306.514 467.314 306.706 467.404 306.86 467.429L309.591 467.468H314.207C315.233 467.494 316.81 467.378 318.939 467.122C320.401 466.942 321.298 466.737 321.632 466.506C322.247 466.096 322.683 465.583 322.939 464.968C323.222 464.326 323.427 462.788 323.555 460.351C323.683 460.351 324.029 460.339 324.594 460.313C324.953 460.287 325.196 460.274 325.324 460.274C325.607 460.274 326.171 460.313 327.017 460.39L326.786 466.545C326.761 467.853 326.709 468.981 326.632 469.93L326.709 470.776C326.735 471.033 326.748 472.93 326.748 476.469C326.748 476.7 326.735 477.085 326.709 477.624C326.222 477.726 325.837 477.777 325.555 477.777C325.35 477.777 324.85 477.7 324.055 477.547C323.824 477.059 323.568 476.354 323.286 475.431C322.696 473.405 322.055 472.225 321.362 471.892C320.131 471.276 316.259 470.969 309.745 470.969C308.796 470.969 307.693 471.058 306.437 471.238C306.257 472.315 306.167 473.559 306.167 474.969L306.36 486.51C306.385 488.638 306.616 489.946 307.052 490.433C307.334 490.741 308.296 491.049 309.937 491.357L310.707 491.434C311.861 491.51 312.874 491.677 313.746 491.934L314.784 492.164C314.887 492.831 314.938 493.344 314.938 493.703C314.938 494.088 314.9 494.575 314.823 495.165L314.092 495.126L312.899 495.165L307.437 494.896C306.821 494.87 303.949 494.857 298.82 494.857C297.409 494.857 296.063 494.934 294.781 495.088C292.755 495.319 291.652 495.434 291.473 495.434C289.806 495.434 288.664 495.421 288.049 495.396ZM335.942 493.472C336.506 493.088 337.25 492.844 338.173 492.741C339.942 492.536 340.955 492.267 341.212 491.934C341.725 491.267 341.981 489.908 341.981 487.856V477.008L341.943 474.431V466.66L341.827 457.774V456.235C341.827 454.132 341.661 452.581 341.327 451.581C340.43 451.042 339.468 450.773 338.442 450.773C337.827 450.773 337.25 450.709 336.711 450.58C336.634 449.939 336.596 449.465 336.596 449.157C336.596 448.952 336.621 448.721 336.673 448.465C338.699 448.234 340.801 447.721 342.981 446.926C345.161 446.105 346.828 445.272 347.982 444.426L349.059 444.387C349.29 444.387 349.623 444.4 350.059 444.426C350.188 453.299 350.252 459.377 350.252 462.659C350.252 463.634 350.239 464.416 350.213 465.006V465.237L350.252 465.968V483.009L350.29 488.625V489.549C350.29 490.651 350.47 491.434 350.829 491.895C351.137 492.229 351.791 492.434 352.791 492.511C353.329 492.562 354.394 492.69 355.984 492.895C356.112 493.434 356.176 493.87 356.176 494.203C356.176 494.46 356.15 494.819 356.099 495.28L353.06 495.126C351.367 494.998 349.239 494.934 346.674 494.934L345.251 494.896C343.789 494.896 341.673 495.011 338.904 495.242H336.096L335.942 493.472ZM389.528 467.122C391.169 468.712 392.387 470.545 393.182 472.623C394.003 474.674 394.413 476.611 394.413 478.431C394.413 481.868 393.887 484.638 392.836 486.74C391.246 489.92 389.105 492.267 386.412 493.78C383.719 495.293 380.59 496.05 377.026 496.05C373.025 496.05 369.627 495.152 366.832 493.357C364.062 491.562 362.074 489.523 360.869 487.241C359.689 484.958 359.099 482.124 359.099 478.739C359.099 477.021 359.382 475.303 359.946 473.584C360.51 471.84 361.279 470.327 362.254 469.045C363.254 467.763 364.344 466.686 365.524 465.814C367.242 464.583 368.96 463.711 370.678 463.198C372.422 462.659 374.525 462.39 376.987 462.39C382.347 462.39 386.527 463.967 389.528 467.122ZM368.486 480.432C368.716 483.612 368.883 485.445 368.986 485.933C369.319 487.651 369.845 489.125 370.563 490.356C371.05 491.151 371.858 491.857 372.986 492.472C374.115 493.088 375.461 493.395 377.026 493.395C378.898 493.395 380.475 492.806 381.757 491.626C383.039 490.421 383.963 488.548 384.527 486.01C384.886 484.343 385.065 481.611 385.065 477.816C385.065 473.148 384.296 469.853 382.757 467.93C381.219 465.981 379.193 465.006 376.679 465.006C374.705 465.006 373.063 465.557 371.755 466.66C370.473 467.763 369.576 469.391 369.063 471.546C368.729 472.93 368.537 475.892 368.486 480.432ZM396.106 463.929L396.798 463.89H397.375C397.58 463.89 398.465 463.967 400.029 464.121C401.619 464.275 403.081 464.352 404.415 464.352C405.441 464.352 406.877 464.275 408.723 464.121C410.57 463.967 411.698 463.89 412.108 463.89C412.442 463.89 412.916 463.903 413.532 463.929C413.583 464.416 413.609 464.814 413.609 465.121C413.609 465.378 413.557 465.673 413.455 466.006C413.07 466.134 412.621 466.237 412.108 466.314C410.98 466.519 410.198 466.75 409.762 467.006C409.634 467.083 409.531 467.263 409.454 467.545C409.659 468.314 409.877 468.994 410.108 469.584L413.878 478.201C415.109 481.047 416.186 483.265 417.109 484.856C417.622 486.01 417.968 486.779 418.148 487.164C420.559 482.906 422.379 478.867 423.61 475.046L421.879 471.392C421.161 469.802 420.418 468.353 419.648 467.045C419.187 466.917 418.686 466.788 418.148 466.66C417.199 466.429 416.327 466.186 415.532 465.929V463.813C417.43 463.839 418.725 463.89 419.417 463.967C420.571 464.07 422.29 464.121 424.572 464.121C425.7 464.121 427.085 464.096 428.727 464.044C430.368 463.967 431.368 463.929 431.727 463.929H433.612L433.497 466.122C433.215 466.147 432.573 466.211 431.573 466.314C430.573 466.416 429.688 466.583 428.919 466.814C430.201 469.994 431.048 471.956 431.458 472.7L431.919 473.546L436.036 482.547L437.459 485.625L438.959 482.317C440.19 479.624 440.921 477.983 441.152 477.393C441.896 475.469 442.332 474.367 442.46 474.084C443.665 471.546 444.268 469.661 444.268 468.43C444.268 468.096 443.998 467.75 443.46 467.391C443.306 467.288 442.357 466.968 440.613 466.429C439.382 466.275 438.549 466.122 438.113 465.968L438.305 463.967C438.69 463.916 439.01 463.89 439.267 463.89C439.472 463.89 440.626 463.98 442.729 464.16C444.858 464.314 446.101 464.39 446.46 464.39C447.435 464.39 448.922 464.288 450.923 464.083C451.795 464.006 452.513 463.967 453.077 463.967V465.083C453.077 465.288 453.064 465.686 453.038 466.275C450.525 467.019 448.948 467.622 448.307 468.083C448.153 468.186 447.986 468.43 447.807 468.814L441.96 482.047C440.959 484.15 439.267 488.151 436.882 494.049C436.548 494.844 436.292 495.46 436.113 495.896H433.227L426.649 481.24L425.957 479.739C425.752 479.278 425.508 478.803 425.226 478.316L424.88 478.931L420.264 488.471C419.571 489.959 418.917 491.254 418.302 492.357C417.712 493.46 417.186 494.601 416.725 495.78L415.378 495.819L413.301 495.78L407.3 483.009L400.799 469.007C400.388 468.263 400.004 467.75 399.645 467.468C399.029 467.006 398.324 466.711 397.529 466.583C396.76 466.429 396.272 466.263 396.067 466.083C396.042 465.596 396.029 465.224 396.029 464.968C396.029 464.608 396.054 464.262 396.106 463.929Z" fill="black"/>
</svg>
